<svg width="25" height="25" viewBox="0 0 25 25" fill="none" xmlns="http://www.w3.org/2000/svg">
<g id="Bold / Messages, Coversation / Pen New Square">
<g id="Vector">
<path d="M21.2939 3.30624C22.3688 4.38124 22.3688 6.12415 21.2939 7.19914L20.7983 7.69469C20.654 7.66345 20.4723 7.61589 20.2652 7.54404C19.7109 7.35172 18.9824 6.98827 18.2971 6.303C17.6118 5.61774 17.2484 4.88923 17.0561 4.3349C16.9842 4.12781 16.9367 3.94609 16.9054 3.80179L17.401 3.30624C18.476 2.23125 20.2189 2.23125 21.2939 3.30624Z" fill="#8B8494"/>
<path d="M14.6802 13.8128C14.2762 14.2168 14.0741 14.4188 13.8514 14.5926C13.5887 14.7975 13.3044 14.9732 13.0036 15.1166C12.7486 15.2381 12.4776 15.3284 11.9355 15.5091L9.07719 16.4619C8.81044 16.5508 8.51636 16.4814 8.31754 16.2826C8.11872 16.0837 8.0493 15.7897 8.13821 15.5229L9.09099 12.6646C9.27167 12.1225 9.36201 11.8515 9.48354 11.5965C9.62689 11.2957 9.80259 11.0114 10.0075 10.7487C10.1813 10.5259 10.3833 10.3239 10.7873 9.91993L15.7034 5.00385C15.9671 5.69804 16.4294 6.55663 17.2364 7.36366C18.0435 8.17069 18.9021 8.63296 19.5962 8.89674L14.6802 13.8128Z" fill="#8B8494"/>
<path d="M20.6356 21.0355C22.1001 19.5711 22.1001 17.214 22.1001 12.5C22.1001 10.9517 22.1001 9.65774 22.0482 8.5661L15.6861 14.9283C15.3348 15.2797 15.0709 15.5437 14.7739 15.7753C14.4253 16.0473 14.0481 16.2804 13.6489 16.4706C13.3089 16.6327 12.9547 16.7506 12.4834 16.9076L9.55153 17.8849C8.74578 18.1535 7.85744 17.9438 7.25688 17.3432C6.65631 16.7427 6.4466 15.8543 6.71519 15.0486L7.69245 12.1167C7.84945 11.6454 7.96742 11.2912 8.12945 10.9512C8.31968 10.552 8.55282 10.1748 8.82476 9.82615C9.05639 9.52918 9.32042 9.26528 9.67183 8.91404L16.034 2.55188C14.9424 2.5 13.6484 2.5 12.1001 2.5C7.38605 2.5 5.02903 2.5 3.56456 3.96447C2.1001 5.42893 2.1001 7.78595 2.1001 12.5C2.1001 17.214 2.1001 19.5711 3.56456 21.0355C5.02903 22.5 7.38605 22.5 12.1001 22.5C16.8141 22.5 19.1712 22.5 20.6356 21.0355Z" fill="#8B8494"/>
</g>
</g>
</svg>
