<svg width="25" height="25" viewBox="0 0 25 25" fill="none" xmlns="http://www.w3.org/2000/svg">
<g id="Bold / Messages, Coversation / Pen New Square">
<g id="Vector">
<path d="M21.2937 3.30624C22.3687 4.38124 22.3687 6.12415 21.2937 7.19914L20.7982 7.69469C20.6539 7.66345 20.4722 7.61589 20.2651 7.54404C19.7107 7.35172 18.9822 6.98827 18.297 6.303C17.6117 5.61774 17.2483 4.88923 17.0559 4.3349C16.9841 4.12781 16.9365 3.94609 16.9053 3.80179L17.4008 3.30624C18.4758 2.23125 20.2187 2.23125 21.2937 3.30624Z" fill="#E7E5F3"/>
<path d="M14.68 13.8128C14.276 14.2168 14.074 14.4188 13.8513 14.5926C13.5885 14.7975 13.3043 14.9732 13.0035 15.1166C12.7485 15.2381 12.4774 15.3284 11.9354 15.5091L9.07706 16.4619C8.81032 16.5508 8.51624 16.4814 8.31742 16.2826C8.1186 16.0837 8.04918 15.7897 8.13809 15.5229L9.09087 12.6646C9.27155 12.1225 9.36189 11.8515 9.48341 11.5965C9.62677 11.2957 9.80247 11.0114 10.0074 10.7487C10.1811 10.5259 10.3831 10.3239 10.7872 9.91993L15.7032 5.00385C15.967 5.69804 16.4293 6.55663 17.2363 7.36366C18.0433 8.17069 18.9019 8.63296 19.5961 8.89674L14.68 13.8128Z" fill="#E7E5F3"/>
<path d="M20.6355 21.0355C22.1 19.5711 22.1 17.214 22.1 12.5C22.1 10.9517 22.1 9.65774 22.0481 8.5661L15.6859 14.9283C15.3347 15.2797 15.0708 15.5437 14.7738 15.7753C14.4252 16.0473 14.0479 16.2804 13.6488 16.4706C13.3088 16.6327 12.9546 16.7506 12.4832 16.9076L9.55141 17.8849C8.74566 18.1535 7.85732 17.9438 7.25676 17.3432C6.65619 16.7427 6.44648 15.8543 6.71506 15.0486L7.69233 12.1167C7.84933 11.6454 7.9673 11.2912 8.12933 10.9512C8.31955 10.552 8.5527 10.1748 8.82464 9.82615C9.05627 9.52918 9.3203 9.26528 9.67171 8.91404L16.0339 2.55188C14.9422 2.5 13.6482 2.5 12.1 2.5C7.38593 2.5 5.02891 2.5 3.56444 3.96447C2.09998 5.42893 2.09998 7.78595 2.09998 12.5C2.09998 17.214 2.09998 19.5711 3.56444 21.0355C5.02891 22.5 7.38593 22.5 12.1 22.5C16.814 22.5 19.171 22.5 20.6355 21.0355Z" fill="#E7E5F3"/>
</g>
</g>
</svg>
