<svg width="25" height="25" viewBox="0 0 25 25" fill="none" xmlns="http://www.w3.org/2000/svg">
<g id="Shapes / love">
<path id="Vector" d="M20.66 5.11006C19.5983 4.04806 18.1907 3.40238 16.6932 3.29044C15.1957 3.17849 13.7078 3.60772 12.5 4.50006C11.2276 3.5537 9.64396 3.12457 8.06789 3.2991C6.49182 3.47362 5.04041 4.23884 4.00594 5.44064C2.97148 6.64245 2.43079 8.19158 2.49277 9.77607C2.55475 11.3606 3.21479 12.8627 4.33997 13.9801L11.79 21.4301C11.8829 21.5238 11.9935 21.5982 12.1154 21.6489C12.2373 21.6997 12.368 21.7259 12.5 21.7259C12.632 21.7259 12.7627 21.6997 12.8845 21.6489C13.0064 21.5982 13.117 21.5238 13.21 21.4301L20.66 13.9801C21.2426 13.3978 21.7048 12.7064 22.0202 11.9454C22.3355 11.1844 22.4979 10.3688 22.4979 9.54506C22.4979 8.72133 22.3355 7.90567 22.0202 7.14469C21.7048 6.38371 21.2426 5.69233 20.66 5.11006ZM19.25 12.5701L12.5 19.3101L5.74997 12.5701C5.15514 11.9728 4.74994 11.2131 4.5852 10.3864C4.42045 9.55969 4.5035 8.70274 4.82392 7.92305C5.14434 7.14336 5.68787 6.47565 6.38632 6.00368C7.08476 5.53171 7.90703 5.2765 8.74997 5.27006C9.87608 5.27282 10.9551 5.72239 11.75 6.52006C11.8429 6.61379 11.9535 6.68818 12.0754 6.73895C12.1973 6.78972 12.328 6.81586 12.46 6.81586C12.592 6.81586 12.7227 6.78972 12.8445 6.73895C12.9664 6.68818 13.077 6.61379 13.17 6.52006C13.9883 5.81094 15.0455 5.4392 16.1275 5.48008C17.2096 5.52096 18.2357 5.97141 18.9982 6.74025C19.7606 7.50909 20.2026 8.5389 20.2345 9.62125C20.2664 10.7036 19.8859 11.7576 19.17 12.5701H19.25Z" fill="#8B8494"/>
</g>
</svg>
