<svg width="25" height="25" viewBox="0 0 25 25" fill="none" xmlns="http://www.w3.org/2000/svg">
<g id="Bottom Navigation Bar/Bold/Users/Property 33">
<path id="Vector" fill-rule="evenodd" clip-rule="evenodd" d="M10.7 4.5H14.7C18.4712 4.5 20.3568 4.5 21.5284 5.67157C22.7 6.84315 22.7 8.72876 22.7 12.5C22.7 16.2712 22.7 18.1569 21.5284 19.3284C20.3568 20.5 18.4712 20.5 14.7 20.5H10.7C6.92871 20.5 5.0431 20.5 3.87152 19.3284C2.69995 18.1569 2.69995 16.2712 2.69995 12.5C2.69995 8.72876 2.69995 6.84315 3.87152 5.67157C5.0431 4.5 6.92871 4.5 10.7 4.5ZM13.95 9.5C13.95 9.08579 14.2857 8.75 14.7 8.75H19.7C20.1142 8.75 20.45 9.08579 20.45 9.5C20.45 9.91421 20.1142 10.25 19.7 10.25H14.7C14.2857 10.25 13.95 9.91421 13.95 9.5ZM14.95 12.5C14.95 12.0858 15.2857 11.75 15.7 11.75H19.7C20.1142 11.75 20.45 12.0858 20.45 12.5C20.45 12.9142 20.1142 13.25 19.7 13.25H15.7C15.2857 13.25 14.95 12.9142 14.95 12.5ZM15.95 15.5C15.95 15.0858 16.2857 14.75 16.7 14.75H19.7C20.1142 14.75 20.45 15.0858 20.45 15.5C20.45 15.9142 20.1142 16.25 19.7 16.25H16.7C16.2857 16.25 15.95 15.9142 15.95 15.5ZM11.7 9.5C11.7 10.6046 10.8045 11.5 9.69995 11.5C8.59538 11.5 7.69995 10.6046 7.69995 9.5C7.69995 8.39543 8.59538 7.5 9.69995 7.5C10.8045 7.5 11.7 8.39543 11.7 9.5ZM9.69995 17.5C13.7 17.5 13.7 16.6046 13.7 15.5C13.7 14.3954 11.9091 13.5 9.69995 13.5C7.49081 13.5 5.69995 14.3954 5.69995 15.5C5.69995 16.6046 5.69995 17.5 9.69995 17.5Z" fill="#8B8494"/>
</g>
</svg>
