<svg width="20" height="21" viewBox="0 0 20 21" fill="none" xmlns="http://www.w3.org/2000/svg">
<g id="Password">
<path id="Stroke 1" fill-rule="evenodd" clip-rule="evenodd" d="M14.3254 1.00489L5.65639 1.01314C2.63539 1.01602 0.74343 3.15682 0.746312 6.18382L0.754087 14.3518C0.756969 17.3788 2.644 19.516 5.674 19.5131L14.342 19.5049C17.373 19.502 19.257 17.3612 19.2541 14.3342L19.2463 6.16621C19.2434 3.13921 17.3554 1.00201 14.3254 1.00489Z" stroke="#E6E5E5" stroke-width="1.5" stroke-linecap="round" stroke-linejoin="round"/>
<path id="Stroke 3" fill-rule="evenodd" clip-rule="evenodd" d="M8.68922 10.2603C8.69019 11.2833 7.86198 12.1131 6.83898 12.114C5.81599 12.115 4.9862 11.2868 4.98522 10.2638C4.98425 9.24079 5.81246 8.411 6.83546 8.41003L6.83846 8.41002C7.85946 8.41005 8.68825 9.23826 8.68922 10.2603Z" stroke="#E6E5E5" stroke-width="1.5" stroke-linecap="round" stroke-linejoin="round"/>
<path id="Stroke 5" d="M8.69208 10.2603L15.0101 10.2542L15.0118 12.1062" stroke="#E6E5E5" stroke-width="1.5" stroke-linecap="round" stroke-linejoin="round"/>
<path id="Stroke 7" d="M12.1836 12.109L12.1819 10.257" stroke="#E6E5E5" stroke-width="1.5" stroke-linecap="round" stroke-linejoin="round"/>
</g>
</svg>
