<svg width="25" height="25" viewBox="0 0 25 25" fill="none" xmlns="http://www.w3.org/2000/svg">
<g id="Bold / Shopping, Ecommerce / Bag Heart">
<path id="Vector" fill-rule="evenodd" clip-rule="evenodd" d="M9.15017 6.51489C9.15007 6.50994 9.15002 6.50498 9.15002 6.5V5.5C9.15002 3.42893 10.829 1.75 12.9 1.75C14.9711 1.75 16.65 3.42893 16.65 5.5V6.5C16.65 6.50498 16.65 6.50994 16.6499 6.5149C17.9371 6.55353 18.7248 6.6924 19.3261 7.19147C20.1593 7.88295 20.3788 9.05339 20.8177 11.3943L21.5677 15.3943C22.1849 18.686 22.4935 20.3318 21.5938 21.4159C20.694 22.5 19.0195 22.5 15.6705 22.5H10.1296C6.78051 22.5 5.10598 22.5 4.20626 21.4159C3.30654 20.3318 3.61514 18.686 4.23233 15.3943L4.98233 11.3943C5.42125 9.05339 5.64071 7.88295 6.47388 7.19147C7.07523 6.69239 7.86291 6.55353 9.15017 6.51489ZM10.65 5.5C10.65 4.25736 11.6574 3.25 12.9 3.25C14.1427 3.25 15.15 4.25736 15.15 5.5V6.5C15.15 6.49999 15.15 6.50001 15.15 6.5C15.0748 6.49998 14.9982 6.5 14.9205 6.5H10.8796C10.8018 6.5 10.7253 6.5 10.65 6.50002C10.65 6.50002 10.65 6.50003 10.65 6.50002V5.5ZM9.90001 13.6967C9.90001 14.6812 11.0649 15.7213 11.9429 16.3656C12.3626 16.6736 12.5725 16.8276 12.9 16.8276C13.2275 16.8276 13.4374 16.6736 13.8572 16.3656C14.7352 15.7214 15.9 14.6812 15.9 13.6967C15.9 12.0235 14.25 11.3988 12.9 12.6913C11.5501 11.3988 9.90001 12.0235 9.90001 13.6967Z" fill="#8B8494"/>
</g>
</svg>
