<svg width="25" height="25" viewBox="0 0 25 25" fill="none" xmlns="http://www.w3.org/2000/svg">
<g id="Bold / Shopping, Ecommerce / Bag Heart">
<path id="Vector" fill-rule="evenodd" clip-rule="evenodd" d="M9.15011 6.51489C9.15001 6.50994 9.14996 6.50498 9.14996 6.5V5.5C9.14996 3.42893 10.8289 1.75 12.9 1.75C14.971 1.75 16.65 3.42893 16.65 5.5V6.5C16.65 6.50498 16.6499 6.50994 16.6498 6.5149C17.9371 6.55353 18.7247 6.6924 19.3261 7.19147C20.1593 7.88295 20.3787 9.05339 20.8176 11.3943L21.5676 15.3943C22.1848 18.686 22.4934 20.3318 21.5937 21.4159C20.694 22.5 19.0194 22.5 15.6704 22.5H10.1295C6.78045 22.5 5.10592 22.5 4.2062 21.4159C3.30648 20.3318 3.61508 18.686 4.23227 15.3943L4.98227 11.3943C5.42119 9.05339 5.64064 7.88295 6.47382 7.19147C7.07517 6.69239 7.86284 6.55353 9.15011 6.51489ZM10.65 5.5C10.65 4.25736 11.6573 3.25 12.9 3.25C14.1426 3.25 15.15 4.25736 15.15 5.5V6.5C15.15 6.49999 15.15 6.50001 15.15 6.5C15.0747 6.49998 14.9982 6.5 14.9204 6.5H10.8795C10.8017 6.5 10.7252 6.5 10.65 6.50002C10.65 6.50002 10.65 6.50003 10.65 6.50002V5.5ZM9.89995 13.6967C9.89995 14.6812 11.0648 15.7213 11.9428 16.3656C12.3626 16.6736 12.5724 16.8276 12.8999 16.8276C13.2275 16.8276 13.4373 16.6736 13.8571 16.3656C14.7351 15.7214 15.8999 14.6812 15.8999 13.6967C15.8999 12.0235 14.2499 11.3988 12.8999 12.6913C11.55 11.3988 9.89995 12.0235 9.89995 13.6967Z" fill="#E7E5F3"/>
</g>
</svg>
