<svg width="16" height="20" viewBox="0 0 16 20" fill="none" xmlns="http://www.w3.org/2000/svg">
<g id="Shield Done">
<path id="Stroke 1" fill-rule="evenodd" clip-rule="evenodd" d="M14.2928 3.19677C14.6934 3.33702 14.9611 3.71468 14.9611 4.1391V10.3477C14.9611 12.0829 14.3304 13.7394 13.2167 15.0227C12.6566 15.6689 11.948 16.1722 11.1954 16.5792L7.93392 18.341L4.66692 16.5783C3.91342 16.1713 3.20392 15.6689 2.64292 15.0218C1.52825 13.7384 0.895752 12.0811 0.895752 10.344V4.1391C0.895752 3.71468 1.16342 3.33702 1.564 3.19677L7.5975 1.07652C7.812 1.00135 8.04575 1.00135 8.25934 1.07652L14.2928 3.19677Z" stroke="#DADADA" stroke-width="1.5" stroke-linecap="round" stroke-linejoin="round"/>
<path id="Stroke 3" opacity="0.4" d="M5.54565 9.42446L7.27999 11.1597L10.8532 7.58655" stroke="#DADADA" stroke-width="1.5" stroke-linecap="round" stroke-linejoin="round"/>
</g>
</svg>
